<svg xmlns="http://www.w3.org/2000/svg" width="32" height="32" viewBox="0 0 24 24" fill="none" stroke="url(#purpleGradient)" stroke-width="2" stroke-linecap="round" stroke-linejoin="round" class="lucide lucide-flower2-icon lucide-flower-2">
  <defs>
    <linearGradient id="purpleGradient" x1="0%" y1="0%" x2="100%" y2="100%">
      <stop offset="0%" stop-color="#d8b4fe" />
      <stop offset="50%" stop-color="#a855f7" />
      <stop offset="100%" stop-color="#6b21a8" />
    </linearGradient>
  </defs>
  <path d="M12 5a3 3 0 1 1 3 3m-3-3a3 3 0 1 0-3 3m3-3v1M9 8a3 3 0 1 0 3 3M9 8h1m5 0a3 3 0 1 1-3 3m3-3h-1m-2 3v-1"/>
  <circle cx="12" cy="8" r="2"/>
  <path d="M12 10v12"/>
  <path d="M12 22c4.2 0 7-1.667 7-5-4.2 0-7 1.667-7 5Z"/>
  <path d="M12 22c-4.2 0-7-1.667-7-5 4.2 0 7 1.667 7 5Z"/>
</svg>
